<svg version="1" xmlns="http://www.w3.org/2000/svg" width="666.667" height="666.667" viewBox="0 0 500.000000 500.000000"><path d="M247.8 3.2C246.4 5 244.7 7.6 244 9c-.7 1.4-1.6 2.7-1.9 3-.6.5-5.2 7.2-30.6 45-7.6 11.3-19.9 29.5-27.3 40.5-7.4 11-18 26.7-23.6 35-5.5 8.2-10.3 15.2-10.6 15.5-1.1 1-12.4 18.5-12.3 19 0 .3.4 5.7.8 12s.8 13.5 1 16c.2 2.5.6 8.8.9 14 .6 9 .8 12.3 2.1 31.5.3 4.4.7 11.4 1 15.5 1.3 20.1 2.3 35.1 3 45 .3 3.6.7 11.2 1 17 .4 5.8.8 12.5 1 15 .2 2.5.6 9.2 1 15 .5 7.6 1.1 11.2 2.4 13 1 1.4 9.1 12.8 18 25.5 8.9 12.6 16.7 23.7 17.4 24.5.7.8 3 4.2 5.2 7.5 2.2 3.2 4.5 6.6 5.2 7.5.7.8 6.3 8.7 12.5 17.5 41.7 59.4 40 57.1 41.6 56.1.6-.3 3.6-4.2 6.7-8.6 4.8-7 11.2-16.1 19.6-27.9 7.2-10.1 17.5-24.9 41.9-59.6 11.2-16 20.7-29.2 21-29.5.3-.3 2.3-3.2 4.5-6.5s4.6-6.6 5.3-7.3c.6-.7 1.2-2.3 1.3-3.5 0-1.2.2-4.7.4-7.7.8-13 1.7-26.8 2-31 .2-2.5.6-9.2.9-15 .4-5.8.8-12.8 1-15.5.3-2.8.7-10.2 1.1-16.5.4-6.3.8-13.1 1-15 .2-1.9.6-8.7 1-15 .4-6.3.8-13.8 1-16.5.2-2.8.6-9.4 1-14.9.3-5.4.8-11.9 1-14.5.2-2.5.6-9.5 1-15.6.4-6 .9-11.3 1.2-11.8.3-.4-.2-1.6-.9-2.5-.8-.9-8-11.4-16-23.2-19.4-28.8-42.3-62.8-60-89-8-11.8-17.3-25.8-20.9-31-3.5-5.2-6.7-10-7.2-10.5-.4-.6-2.2-3.2-4-5.9-1.8-2.7-3.7-5.1-4.3-5.3-.6-.2-2.2 1.1-3.6 2.9z"/></svg>